<?xml version="1.0" encoding="UTF-8"?>
<svg width="34px" height="32px" viewBox="0 0 34 32" version="1.1" xmlns="http://www.w3.org/2000/svg" xmlns:xlink="http://www.w3.org/1999/xlink">
    <!-- Generator: Sketch 42 (36781) - http://www.bohemiancoding.com/sketch -->
    <title>home</title>
    <desc>Created with Sketch.</desc>
    <defs></defs>
    <g id="Page-1" stroke="none" stroke-width="1" fill="none" fill-rule="evenodd">
        <g id="icons" transform="translate(-14.000000, -138.000000)" fill-rule="nonzero" fill="#84B044">
            <path d="M47.2470475,150.815332 C47.2635657,150.200723 47.0132509,149.71854 46.5354928,149.340271 L43.085723,146.605578 L43.085723,140.776298 C43.0836301,140.094787 42.5301943,139.542831 41.8468554,139.540744 L39.2928822,139.540744 C38.608554,139.542837 38.0547111,140.096332 38.0540146,140.778833 L38.0540146,142.616323 C36.4869,141.376967 34.9197855,140.136556 33.3526709,138.895088 C31.8514175,137.708956 30.1443215,137.699452 28.6513272,138.879881 C24.240535,142.361398 19.8356725,145.84925 15.4367395,149.343439 C15.1190812,149.596886 14.8274708,149.897221 14.795705,150.301468 C14.7474209,150.962331 14.6953249,151.640936 14.7925284,152.289126 L14.7925284,152.296096 C14.8228059,152.994713 15.3995005,153.545563 16.1006455,153.54559 L19.2619815,153.54559 L19.2619815,168.59527 C19.2619815,169.371452 19.8274133,170 20.5249911,170 L41.4758304,170 C42.1746788,170 42.7382047,169.371452 42.7382047,168.59527 L42.7382047,159.992647 L42.7382047,153.54559 L45.888105,153.54559 C46.5927012,153.546446 47.1717692,152.991323 47.1987634,152.289126 C47.1987634,152.289126 47.1987634,152.289126 47.1987634,152.285325 C47.2667423,151.979921 47.2457768,151.655509 47.2622951,151.339967 L47.2426003,151.339967 C47.2464122,151.164455 47.2419649,150.990211 47.2470475,150.815332 Z M35.1410875,161.840275 C35.1351554,164.117867 33.285697,165.962944 31.0019991,165.96956 L31.0019991,165.96956 C28.7192906,165.962602 26.8705225,164.118779 26.863546,161.842176 L26.863546,161.842176 C26.8701739,159.565326 28.7190435,157.721118 31.0019991,157.714159 L31.0019991,157.714159 C33.2847076,157.721116 35.1334756,159.564939 35.1404521,161.841542 L35.1404521,161.841542 L35.1410875,161.840275 Z" id="home"></path>
        </g>
    </g>
</svg>