<?xml version="1.0" encoding="UTF-8"?>
<svg width="74px" height="16px" viewBox="0 0 74 16" version="1.1" xmlns="http://www.w3.org/2000/svg" xmlns:xlink="http://www.w3.org/1999/xlink">
    <!-- Generator: Sketch 42 (36781) - http://www.bohemiancoding.com/sketch -->
    <title>wiggle</title>
    <desc>Created with Sketch.</desc>
    <defs></defs>
    <g id="Page-1" stroke="none" stroke-width="1" fill="none" fill-rule="evenodd">
        <g id="icons" transform="translate(-341.000000, -338.000000)" fill="#85AF4B">
            <path d="M415.000592,351.055335 C415.000592,352.840678 413.123693,354.01522 411.459783,353.29127 C408.666934,352.075674 406.959027,349.513311 405.510105,347.340459 C403.618207,344.502735 402.438271,342.896627 400.194392,342.896627 C397.951514,342.896627 396.771577,344.502735 394.87968,347.340459 C392.901787,350.307353 390.43892,354.0002 385.389193,354.0002 C380.341465,354.0002 377.880598,350.307353 375.903705,347.340459 C374.013808,344.502735 372.834871,342.896627 370.594992,342.896627 C368.353113,342.896627 367.173177,344.502735 365.282279,347.340459 C363.305386,350.307353 360.843519,354.0002 355.794792,354.0002 C350.747065,354.0002 348.286198,350.307353 346.310305,347.340459 C344.889382,345.208661 343.871437,343.772777 342.503511,343.18901 C341.59056,342.8005 341.000592,341.922348 341.000592,340.946066 C341.000592,339.160723 342.87849,337.98518 344.541401,338.710132 C347.33225,339.926729 349.038158,342.48809 350.485079,344.659941 C352.375977,347.498667 353.554913,349.103773 355.794792,349.103773 C358.036671,349.103773 359.215607,347.498667 361.107505,344.659941 C363.084398,341.693047 365.545265,338.0002 370.594992,338.0002 C375.642719,338.0002 378.103586,341.693047 380.08048,344.659941 C381.970377,347.498667 383.149314,349.103773 385.389193,349.103773 C387.633071,349.103773 388.813008,347.497665 390.705905,344.659941 C392.683798,341.692046 395.144665,338.0002 400.194392,338.0002 C405.245119,338.0002 407.705986,341.692046 409.683879,344.659941 C411.105803,346.79274 412.125747,348.229626 413.496673,348.812391 C414.409624,349.1999 415.000592,350.079053 415.000592,351.055335" id="wiggle"></path>
        </g>
    </g>
</svg>