<?xml version="1.0" encoding="UTF-8"?>
<svg width="330px" height="330px" viewBox="0 0 330 330" version="1.1" xmlns="http://www.w3.org/2000/svg" xmlns:xlink="http://www.w3.org/1999/xlink">
    <!-- Generator: Sketch 42 (36781) - http://www.bohemiancoding.com/sketch -->
    <title>ypf</title>
    <desc>Created with Sketch.</desc>
    <defs></defs>
    <g id="Page-1" stroke="none" stroke-width="1" fill="none" fill-rule="evenodd">
        <g id="ypf" fill-rule="nonzero">
            <g id="Page-1">
                <g id="ypf">
                    <g id="Page-1">
                        <g id="ypf">
                            <g id="kahanibaaz-copy" fill="#FFFFFF">
                                <g id="barsoom-copy-2">
                                    <rect id="Rectangle-2" x="0" y="0" width="330" height="330"></rect>
                                </g>
                            </g>
                            <path d="M149.125,140 C147.398438,140 146,141.398437 146,143.125 L146,143.125 L146,186.875 C146,188.601562 147.398438,190 149.125,190 L149.125,190 C150.85,190 152.25,188.601562 152.25,186.875 L152.25,186.875 L152.25,143.125 C152.25,141.398437 150.85,140 149.125,140 Z M177.25,152.5 L177.25,186.875 C177.25,188.601562 178.648438,190 180.375,190 L180.375,190 C182.101562,190 183.5,188.601562 183.5,186.875 L183.5,186.875 L183.5,152.5 C183.5,150.773437 182.101562,149.375 180.375,149.375 L180.375,149.375 C178.648438,149.375 177.25,150.773437 177.25,152.5 L177.25,152.5 Z M161.625,171.25 L161.625,186.875 C161.625,188.601562 163.023438,190 164.75,190 L164.75,190 C166.476562,190 167.875,188.601562 167.875,186.875 L167.875,186.875 L167.875,171.25 C167.875,169.523437 166.476562,168.125 164.75,168.125 L164.75,168.125 C163.023438,168.125 161.625,169.523437 161.625,171.25 L161.625,171.25 Z" id="13-copy-2" fill="#85AF4B"></path>
                        </g>
                    </g>
                </g>
            </g>
        </g>
    </g>
</svg>